<svg xmlns="http://www.w3.org/2000/svg" xmlns:xlink="http://www.w3.org/1999/xlink" viewBox="0 0 198.81 402.29"><defs><style>.cls-1{fill:none;}.cls-2{isolation:isolate;}.cls-3{clip-path:url(#clip-path);}.cls-4{fill:#7f3803;}.cls-5{clip-path:url(#clip-path-2);}.cls-6{fill:#bc5700;}.cls-7{clip-path:url(#clip-path-3);}.cls-8{fill:#e06000;}.cls-9{clip-path:url(#clip-path-4);}.cls-10{clip-path:url(#clip-path-5);}.cls-11{fill:#f98630;}.cls-12{clip-path:url(#clip-path-6);}.cls-13{fill:#db9a6e;}.cls-14{clip-path:url(#clip-path-7);}.cls-15{fill:#9e4000;}</style><clipPath id="clip-path" transform="translate(-162.95 -41.99)"><polygon class="cls-1" points="162.81 338.93 163.71 24.42 361.8 138.79 360.91 453.3 162.81 338.93"/></clipPath><clipPath id="clip-path-2" transform="translate(-162.95 -41.99)"><polygon class="cls-1" points="163.59 348.58 164.47 38 349.21 144.66 348.33 455.24 163.59 348.58"/></clipPath><clipPath id="clip-path-3" transform="translate(-162.95 -41.99)"><polygon class="cls-1" points="238.43 381.12 238.49 359.59 257.23 370.41 257.17 391.94 238.43 381.12"/></clipPath><clipPath id="clip-path-4" transform="translate(-162.95 -41.99)"><polygon class="cls-1" points="297.53 136.26 297.55 128.5 304.3 132.4 304.28 140.16 297.53 136.26"/></clipPath><clipPath id="clip-path-5" transform="translate(-162.95 -41.99)"><polygon class="cls-1" points="208.3 84.79 208.32 77.03 289.35 123.81 289.33 131.57 208.3 84.79"/></clipPath><clipPath id="clip-path-6" transform="translate(-162.95 -41.99)"><polygon class="cls-1" points="181.96 313.27 182.57 97.33 330.09 182.5 329.48 398.44 181.96 313.27"/></clipPath><clipPath id="clip-path-7" transform="translate(-162.95 -41.99)"><polygon class="cls-1" points="219.67 255.2 219.85 190.23 286.25 228.56 286.06 293.54 219.67 255.2"/></clipPath></defs><g id="Layer_2" data-name="Layer 2"><g class="cls-2"><g class="cls-3"><path class="cls-4" d="M345.55,129.4,203.64,47.47c-22.06-12.73-40-2.51-40.06,22.84L163,293c-.08,25.34,17.74,56.21,39.8,68.95L321,430.24C343,443,361,432.75,361,407.41l.71-249.95c0-10.32-7.22-22.87-16.2-28.06" transform="translate(-162.95 -41.99)"/></g></g></g><g id="Layer_1" data-name="Layer 1"><g class="cls-2"><g class="cls-5"><path class="cls-4" d="M324.34,136l-135-78c-11-6.33-19.92-1.23-20,11.37l-.72,253.46c0,12.6,8.86,28,19.82,34.34l135,78c11,6.33,19.91,1.22,19.95-11.37l.72-253.46c0-12.61-8.86-28-19.82-34.34" transform="translate(-162.95 -41.99)"/><path class="cls-6" d="M188.45,357.23c-11-6.33-19.86-21.74-19.82-34.34l.72-253.46c0-12.6,9-17.7,20-11.37l135,78c11,6.33,19.85,21.73,19.82,34.34l-.72,253.46c0,12.59-9,17.7-19.95,11.37l-135-78m135.9-226.92-135-78c-13.71-7.91-24.89-1.54-24.93,14.22L163.67,320c0,15.74,11.06,35,24.77,42.9l135,78c13.71,7.91,24.89,1.54,24.94-14.2l.72-253.46c0-15.76-11.07-35-24.78-42.92" transform="translate(-162.95 -41.99)"/></g></g><g class="cls-2"><g class="cls-7"><path class="cls-8" d="M247.86,365c-5.18-3-9.38-.58-9.4,5.37s4.16,13.18,9.33,16.17,9.39.59,9.41-5.35S253,368,247.86,365" transform="translate(-162.95 -41.99)"/></g></g><g class="cls-2"><g class="cls-9"><path class="cls-8" d="M300.93,130.45c-1.87-1.07-3.39-.21-3.39,1.93a7.39,7.39,0,0,0,3.36,5.83c1.87,1.08,3.39.22,3.39-1.93a7.42,7.42,0,0,0-3.36-5.83" transform="translate(-162.95 -41.99)"/></g></g><g class="cls-2"><g class="cls-10"><path class="cls-11" d="M286,121.86,211.7,79c-1.86-1.08-3.38-.21-3.39,1.93a7.46,7.46,0,0,0,3.37,5.83L286,129.62c1.87,1.08,3.39.21,3.39-1.93a7.41,7.41,0,0,0-3.37-5.83" transform="translate(-162.95 -41.99)"/></g></g><g class="cls-2"><g class="cls-12"><polyline class="cls-13" points="167.15 140.51 19.62 55.34 19.01 271.28 166.53 356.45 167.15 140.51"/></g></g><g class="cls-2"><g class="cls-14"><path class="cls-15" d="M236.24,199.69l-1.49-.86c-6-3.48-10.3-2.75-10.32,4.74a63.38,63.38,0,0,0,.55,7.1,62.45,62.45,0,0,1,.55,7.18c0,2.85-.73,5.61-5.76,2.71v4.16c5,2.9,5.73,6.82,5.72,9.35a43.59,43.59,0,0,1-.58,6.27,44.85,44.85,0,0,0-.59,6.36c0,8.24,4.37,13.7,10.25,17.1l1.49.86,0-4.48-1.28-.74c-4-2.29-5.59-5.76-5.58-10.32a35.29,35.29,0,0,1,.51-5.58,36.29,36.29,0,0,0,.51-5.92,14.62,14.62,0,0,0-5.08-11.83v-.16c3.2.86,5.19-.6,5.13-5.86a48.72,48.72,0,0,0-.48-6.48,47.54,47.54,0,0,1-.47-6.07c0-4.41,1.43-6.19,5.62-3.78l1.27.74,0-4.49" transform="translate(-162.95 -41.99)"/><path class="cls-15" d="M271.28,219.92l-1.42-.82v4.49l1.28.74c4.11,2.46,5.59,5.84,5.58,10.24a48,48,0,0,1-.51,5.51,37.24,37.24,0,0,0-.59,5.87,14.93,14.93,0,0,0,5.09,11.75v.16c-3.13-.91-5.12.72-5.14,5.94a50,50,0,0,0,.55,6.52c.21,2.16.49,4.2.48,6.16,0,4.56-1.72,6-5.7,3.81l-1.2-.7v4.49l1.49.86c5.81,3.35,10.29,3,10.32-5.23a61.84,61.84,0,0,0-.55-7,58.47,58.47,0,0,1-.55-6.93c0-2.53.72-5.63,5.76-2.72v-4.16c-5-2.91-5.74-6.49-5.73-9.35A48.76,48.76,0,0,1,281,243a47.4,47.4,0,0,0,.59-6.44c0-7.49-4.3-13.18-10.33-16.66" transform="translate(-162.95 -41.99)"/></g></g></g></svg>