<svg id="Layer_1" data-name="Layer 1" xmlns="http://www.w3.org/2000/svg" viewBox="0 0 48.84 45.31"><defs><style>.cls-1{fill:#bc5700;}.cls-2{fill:#a84902;}.cls-3{opacity:0.3;}.cls-4{fill:#f26903;}.cls-5{fill:#893b00;}</style></defs><circle class="cls-1" cx="25.78" cy="22.65" r="18.01"/><path class="cls-2" d="M36.23,9.94c-.43,0-.48.29-.35,1.2-.59-.14-1.17.4-1.77,0,0,0-.11,0-.14,0-.58.1-.6.08-.47-.56,0-.12.07-.24.08-.35a1.63,1.63,0,0,0,0-.44h-.07c-.1.44-.44.81-.3,1.34,0,.05-.11.21-.16.2a1,1,0,0,0-.94.66s-.09.1-.12.1a.68.68,0,0,0-.63.56c0,.07-.16.1-.23.15a3,3,0,0,0-.32.18l-.34.15-.34.18a1.58,1.58,0,0,0,.22.29,4.4,4.4,0,0,1,.55.37.88.88,0,0,1,0,1c-.12.08-.35,0-.5-.05a7,7,0,0,0-.84-.17.41.41,0,0,0-.39.6.71.71,0,0,1,0,.65c-.17.31-.1.91.11,1a3.54,3.54,0,0,0,.83.23.45.45,0,0,0,.57-.29,3,3,0,0,1,1.25-1.42l.16-.1c-.11-.16-.18-.3-.26-.41a.63.63,0,0,1,.45.07c.26.11.5.17.67-.19.06-.19.22-.19.33,0a.77.77,0,0,1,.15.3c.11.46.44.63.75.85a.86.86,0,0,1,.35.38.69.69,0,0,1,0,.47c-.06.09-.23.08-.37.13h-.21a.64.64,0,0,1,0,.07c.1.09.22.25.34.22.32,0,.54-.5.54-1.07a2.42,2.42,0,0,1,.35.12s0-.07.06-.09a6.19,6.19,0,0,1-.67-.58c-.29-.25-.62-.42-.62-.89,0-.14-.15-.36.08-.4s.44,0,.43.29c0,.51.31.66.64.83a.73.73,0,0,1,.36.22.45.45,0,0,1,.13.34.71.71,0,0,0,.1.72,1,1,0,0,1,.15.28,1.62,1.62,0,0,1,.13.39l.32-.27a.41.41,0,0,0,.09-.1c.17-.15.19-.28,0-.42a3.07,3.07,0,0,1-.29-.34.77.77,0,0,1,.79-.14.78.78,0,0,0,.57-.07s0-.35,0-.54a1.12,1.12,0,0,1,0-.52,2.07,2.07,0,0,1,.36-.62c.12-.16.31-.35.37-.33a1.11,1.11,0,0,1,.45.46c.1.07.15.26.25.27s.28-.08.42-.13,0-.07,0-.11l-.5-.2v-.11c.43-.11.85-.24,1.27-.36a1.75,1.75,0,0,1-.29.48c-.22.29-.22.41,0,.65a2,2,0,0,1,.46.42.68.68,0,0,1,.07.51c0,.1-.23.2-.35.19a1.43,1.43,0,0,1-.61-.21,1,1,0,0,0-1.15,0c-.32.13-.61.26-.91.41-.07.05-.2.11-.2.18a7.65,7.65,0,0,0,.3,1,.42.42,0,0,0,.39.12c.2-.23.3-.12.45,0s.36.25.56.05.11-.08.12-.1a2.56,2.56,0,0,0,.29.55c.16.22.16.34-.06.52a.7.7,0,0,0-.29.47c0,.31-.1.33-.29.3a2.49,2.49,0,0,0-.8-.09,2.65,2.65,0,0,1-1.86-.5c-.12-.09-.33-.15-.4-.06s-.12.29-.1.45c0,.35,0,.45-.35.3s-.75-.47-1.11-.71a.86.86,0,0,1-.43-1c.07-.32-.1-.48-.4-.45a1.35,1.35,0,0,1-.53,0,1.94,1.94,0,0,0-1.67.21.9.9,0,0,1-1,.11s-.19.08-.27.16a6.59,6.59,0,0,0-.52.64,1.36,1.36,0,0,0-.25.62.9.9,0,0,1-.4.91,2.71,2.71,0,0,0-1,1.32c-.08.12-.12.26-.19.36a.84.84,0,0,0-.1.9,2,2,0,0,1,0,1.24,1,1,0,0,0,0,.77A4.8,4.8,0,0,1,27.61,26a.34.34,0,0,0,.09.19c.29.31.56.63.87.92s.51.39.82.17a2.45,2.45,0,0,1,1.06-.3.64.64,0,0,0,.42-.13.65.65,0,0,1,.89.1c.17.16.3.5.62.32,0,0,.09,0,.12.07a.92.92,0,0,1,.2,1.06c-.21.43-.24.74,0,1a1.69,1.69,0,0,1,.49,1.05,1.16,1.16,0,0,0,.15.43A2.19,2.19,0,0,1,33.29,33a1.63,1.63,0,0,0-.07,1.6,5.16,5.16,0,0,1,.42,1.73A3.75,3.75,0,0,0,34,37.62a2.34,2.34,0,0,1,.31,1.43c0,.38.05.49.39.45s.89-.1,1.33-.17a1,1,0,0,0,.23-.14A2.92,2.92,0,0,0,37.49,37a.44.44,0,0,1,.36-.44.77.77,0,0,0,.28-.29,1,1,0,0,0-.08-.83.82.82,0,0,1,0-.49,3.78,3.78,0,0,1,.71-.73,2.25,2.25,0,0,0,.72-2.13,9.36,9.36,0,0,1-.28-1.32,1.5,1.5,0,0,1,.68-1.58,4,4,0,0,0,1-1A21.8,21.8,0,0,0,42,26.15a3.65,3.65,0,0,0,.16-.59,1.58,1.58,0,0,0-.54,0c-.36,0-.69.17-1,.21-.08,0-.2-.09-.27-.2-.18-.34-.36-.7-.56-1.05a1.19,1.19,0,0,0-.17-.31c-.11-.28-.24-.58-.34-.88-.17-.59-.33-1.15-.51-1.73-.08-.25-.12-.5-.2-.75s-.2-.46-.31-.69c.12,0,.19,0,.22.06.32.5.62,1,.94,1.54,0,.05,0,.15,0,.26a4.27,4.27,0,0,1,.13.48,5.57,5.57,0,0,1,.78,2.28c0,.23.13.34.38.22s.43-.14.62-.24a5.24,5.24,0,0,0,.93-.5c.29-.18.57-.43.88-.62A1.86,1.86,0,0,0,44,22.52a1,1,0,0,0-.14-.53c-.07-.13-.22-.2-.32-.31s-.4-.28-.65,0a.42.42,0,0,1-.7-.07c0-.06-.1-.06-.13-.09s-.16-.22-.14-.29a.69.69,0,0,0-.17-.76,1.24,1.24,0,0,1-.23-.32.66.66,0,0,1,0-.37c.06-.08.21-.08.34,0s.37.34.47.59c.22.61.36.68.93.56a.26.26,0,0,1,.27.06,1.59,1.59,0,0,0,.46.47A18,18,0,0,0,36.23,9.94Z" transform="translate(-0.58 -2.35)"/><path class="cls-2" d="M9.46,26.63a.7.7,0,0,1,.77.49c0,.07.13.13.22.19s.16,0,.21.09c.19.23.48.14.71.21a1.59,1.59,0,0,0,.16-.32,1.17,1.17,0,0,1,.57,1.07c-.07.34-.14.66-.18,1a1,1,0,0,0,.13.38s.08.13,0,.17a.46.46,0,0,0,.29.62,2.62,2.62,0,0,1,1.16,1,1.28,1.28,0,0,0,1,.6.89.89,0,0,1,.9.58c.12.28.21.56.34.85a7.65,7.65,0,0,0,.53,1.21,4.38,4.38,0,0,1,.37.9,8,8,0,0,0,.57,1.37c0,.08.18.15.27.21a.76.76,0,0,1,.11.16c.07.17.16.33.25.51s.28.43-.1.53c.31,0,.45.13.53.35,0,0,0,0,.05.06.33.18.34.35.13.49.26.18.54.34.81.53a1,1,0,0,0,.75.2c.24,0,.48,0,.45-.27,0,0,.1-.08.15-.11l.18-.14c-.15,0-.24.05-.35.06a.56.56,0,0,1-.3,0,7.81,7.81,0,0,1-.71-.58.16.16,0,0,1,0-.15,2.49,2.49,0,0,1,.16-.55c.06-.18-.07-.25-.27-.29l-.6-.16c.07-.05.08-.09.12-.11.31-.26.33-.45.07-.85,0-.06,0-.21.05-.24s.1-.34-.06-.51L18.77,36c.36-.06.71-.07.7-.45a.59.59,0,0,0-.49-.67l.77-.17c-.19-.18-.22-.33,0-.44a.42.42,0,0,0,.1-.2A1.14,1.14,0,0,0,19.65,33a.33.33,0,0,1,.1-.46c.19-.15.39-.31.56-.47a.67.67,0,0,0,.13-.41c0-.17,0-.35,0-.51s.15-.38,0-.55a.83.83,0,0,1-.06-1.16,1.28,1.28,0,0,0,.11-.27.43.43,0,0,0-.18-.6,2.49,2.49,0,0,0-1.51-.35,1.57,1.57,0,0,1-.86-.08.72.72,0,0,0-.76,0,1,1,0,0,0-.45-.94.52.52,0,0,0-.35-.11,2.6,2.6,0,0,1-1.62-.27s-.08-.05-.09-.1c-.15-.28-.25-.32-.54-.13s-.56.08-.83.05a3,3,0,0,1-.38-.09c0,.13.05.26.09.38A.11.11,0,0,0,13,27c-.06,0-.15,0-.15,0-.06-.19-.11-.37-.16-.56-.33.32-.7.54-.71,1-.4-.26-.41-.28-.82,0-.13.09-.24,0-.35-.07a1.52,1.52,0,0,1-.45-1c-.07-.37-.14-.41-.51-.28a.35.35,0,0,0-.12,0,1.62,1.62,0,0,0-.31,0,2.64,2.64,0,0,0,0-.29c0-.31.05-.63.07-.95-.44,0-.54.14-.56.48,0,.09,0,.24-.07.26a1.57,1.57,0,0,1-.51.19l0,.43a1.51,1.51,0,0,1,.55.22A1.45,1.45,0,0,0,9.46,26.63Z" transform="translate(-0.58 -2.35)"/><g class="cls-3"><path class="cls-2" d="M36.37,10A18,18,0,0,1,13,37.07,18,18,0,1,0,36.37,10Z" transform="translate(-0.58 -2.35)"/></g><path class="cls-2" d="M8.48,23.2c.34-.46.37-.46,1-.21a.51.51,0,0,0,.3,0c.16,0,.22,0,.24.14s0,.15.06.23a.63.63,0,0,0,.59.5c-.12-.26-.22-.49-.32-.75a.77.77,0,0,1-.07-.29,1.28,1.28,0,0,1,.5-.93.63.63,0,0,0,.18-.81c0-.09-.07-.16-.12-.25a2.31,2.31,0,0,0,.23-.18,8.42,8.42,0,0,0,.8-.77,1.71,1.71,0,0,1,.75-.57,1,1,0,0,0,.11.26c.09,0,.2,0,.26,0l.8-.45a.21.21,0,0,0,0-.36l-.13.07c-.35.26-.51.24-.68-.13a.49.49,0,0,1-.05-.2c.07-.32-.14-.44-.45-.45,0,0,0,0-.05-.08.27,0,.52,0,.77,0s.5,0,.77,0a.61.61,0,0,1,0-.24,1.3,1.3,0,0,0,.78-.3s.37-.72.16-.69l1.23-.16a.52.52,0,0,0,.37-.15.49.49,0,0,0,.09-.28,11.54,11.54,0,0,1,.2-1.67,5.48,5.48,0,0,0,.31-.52c.13-.21.22-.3.47-.25a.8.8,0,0,0,.62-.19,3.2,3.2,0,0,1,.78-.4c.38-.15.77-.24,1.16-.36.1,0,.24-.08.25-.12,0-.23.22-.22.43-.23,0-.25,0-.49.05-.7.07,0,.14-.13.23-.19s.42-.26.4-.47,0-.39.4-.43l-.57-.38,1.73-.93a2.4,2.4,0,0,0-1.59,0c-.25.11-.28.11-.4,0l.75-.43-1.22-.53h-.06l-.77-.06c-.4.16-.9.39-1.43.63A18,18,0,0,0,8.46,23.08l0,.12Z" transform="translate(-0.58 -2.35)"/><path class="cls-4" d="M43.17,18.59c.13.37.25.74.37,1.12,5.78,2.47,4.89,6.09-2.71,8.27C32.16,30.46,18,30.46,9.29,28s-8.76-6.77-.1-9.25l.35-.09c.11-.31.24-.61.37-.9-.77.17-1.52.35-2.24.56-9.5,2.72-9.45,7.14.12,9.86s25.05,2.72,34.56,0C51.51,25.54,51.75,21.33,43.17,18.59Z" transform="translate(-0.58 -2.35)"/><path class="cls-4" d="M40.68,35.86c-.07.09-.13.19-.19.28,1.11,4.21-2.15,5.32-8.36,2.18C24.08,34.26,13.69,24.66,9,16.91s-1.76-10.76,6.29-6.7l.48.26c.23-.17.47-.33.71-.49-.68-.4-1.36-.78-2-1.11C5.61,4.41,2.65,7.7,7.82,16.19s16.55,19,25.38,23.46c7.8,3.93,11,1.81,8.07-4.6C41.08,35.33,40.88,35.6,40.68,35.86Z" transform="translate(-0.58 -2.35)"/><path class="cls-4" d="M27,6.3c-.21.22-.41.46-.62.7.51,0,1,0,1.5.07,5.68-5.27,10.38-2.39,10.19,6.54-.2,9.41-5.34,22.31-11.46,28.75-5.47,5.75-10.25,4.12-11-2.94-.41-.3-.8-.62-1.18-1,0,9.76,5.21,12.14,11.78,5.24,6.7-7.06,12.34-21.19,12.56-31.5S33.71-.76,27,6.3Z" transform="translate(-0.58 -2.35)"/><path class="cls-4" d="M41,14.58c.21.3.42.62.62.94,5.45.18,5.88,3.57.23,8.23-6.69,5.51-19.15,10.94-27.78,12.1-7.89,1.06-10-2-5.22-6.66-.08-.32-.14-.65-.2-1-7,5.92-5.25,9.7,4.11,8.45S35.89,29.44,43.22,23.4C50.08,17.74,49,14,41,14.58Z" transform="translate(-0.58 -2.35)"/><circle class="cls-5" cx="17.54" cy="33.23" r="1.08"/><circle class="cls-5" cx="4.45" cy="24.67" r="1.58"/><circle class="cls-5" cx="12.44" cy="6.41" r="1.08"/><circle class="cls-5" cx="37.81" cy="11.02" r="1.58"/><circle class="cls-5" cx="34.1" cy="26.99" r="1.12"/><circle class="cls-5" cx="46.88" cy="22.65" r="1.58"/><circle class="cls-5" cx="23.23" cy="42.95" r="1.58"/></svg>