<svg id="Layer_1" data-name="Layer 1" xmlns="http://www.w3.org/2000/svg" viewBox="0 0 40.56 48"><defs><style>.cls-1{fill:#2e4277;}.cls-2{fill:#384e85;}.cls-3{isolation:isolate;}.cls-4{fill:#bc5700;}.cls-5{fill:#934002;}.cls-6{fill:#ed6500;}.cls-7{fill:#1b2a4f;}.cls-8{fill:#ff9c52;}.cls-9{fill:#ea7c32;}.cls-10{fill:#f4e9d9;}.cls-11{fill:#fff;}.cls-12{fill:#d9ddf6;}.cls-13{fill:#f9bf6b;}.cls-14{fill:#f98f46;}.cls-15{fill:#af5700;}.cls-16{fill:#d16615;}.cls-17{fill:#b27214;}.cls-18{fill:#cc842e;}.cls-19{fill:#db5e00;}.cls-20{fill:#8c3b03;}</style></defs><path class="cls-1" d="M22.46,37.09v1.18a.68.68,0,0,1-.4.56l-6,3.46a2.16,2.16,0,0,1-1.95,0l-6-3.46a.71.71,0,0,1-.41-.57V37.09a.67.67,0,0,0,.4.56l6,3.47a2.14,2.14,0,0,0,1.94,0l6-3.47A.66.66,0,0,0,22.46,37.09Z" transform="translate(-4.72 -1)"/><path class="cls-2" d="M22.05,36.53a.59.59,0,0,1,0,1.12l-6,3.47a2.14,2.14,0,0,1-1.94,0l-6-3.47a.59.59,0,0,1,0-1.12l6-3.47a2.16,2.16,0,0,1,2,0Z" transform="translate(-4.72 -1)"/><path class="cls-1" d="M19.72,36.84a.26.26,0,0,1,0,.5l-4.18,2.43a.93.93,0,0,1-.86,0l-4.2-2.43a.26.26,0,0,1,0-.5l4.17-2.43a1,1,0,0,1,.86,0Z" transform="translate(-4.72 -1)"/><g class="cls-3"><polygon class="cls-4" points="5.63 2.35 5.63 5.58 3.01 7.1 3.02 3.87 5.63 2.35"/><polygon class="cls-5" points="3.02 3.87 3.01 7.1 0.38 5.58 0.39 2.35 3.02 3.87"/><polygon class="cls-6" points="5.63 2.35 3.02 3.87 0.39 2.35 3 0.83 5.63 2.35"/></g><polygon class="cls-2" points="9.93 24.93 9.99 25.01 10.37 24.8 8.84 22.92 9.86 22.79 9.9 22.77 9.96 22.84 10.34 22.64 8.8 20.75 9.87 20.61 9.91 20.59 9.97 20.67 10.35 20.46 8.8 18.57 9.87 18.44 9.91 18.41 9.98 18.49 10.35 18.29 8.81 16.4 9.88 16.26 9.92 16.24 9.98 16.32 10.36 16.11 8.82 14.22 9.89 14.09 9.93 14.06 9.99 14.14 10.37 13.93 8.82 12.04 9.89 11.91 9.93 11.89 9.99 11.97 10.37 11.76 8.73 9.74 8.35 9.95 9.82 11.76 8.65 11.91 8.28 12.12 8.55 12.08 8.38 12.17 9.82 13.93 8.65 14.08 8.27 14.29 8.54 14.26 8.37 14.35 9.81 16.11 8.64 16.26 8.26 16.47 8.53 16.43 8.37 16.52 9.81 18.29 8.63 18.43 8.26 18.64 8.53 18.61 8.36 18.7 9.8 20.46 8.63 20.61 8.25 20.82 8.52 20.78 8.35 20.87 9.79 22.64 8.66 22.78 8.28 22.99 8.37 22.98 8.35 22.99 9.82 24.8 8.65 24.95 8.28 25.15 8.55 25.12 8.38 25.21 9.82 26.97 8.65 27.12 8.27 27.33 8.54 27.3 8.37 27.39 9.81 29.15 8.64 29.3 8.26 29.5 8.53 29.47 8.37 29.56 9.81 31.32 8.63 31.47 8.26 31.68 8.53 31.65 8.36 31.74 9.8 33.5 8.63 33.65 8.25 33.86 8.52 33.82 8.35 33.91 9.79 35.67 8.66 35.82 8.28 36.03 9.86 35.83 9.9 35.8 9.96 35.88 10.34 35.67 8.8 33.79 9.87 33.65 9.91 33.63 9.97 33.71 10.35 33.5 8.8 31.61 9.87 31.48 9.91 31.45 9.98 31.53 10.35 31.32 8.81 29.43 9.88 29.3 9.92 29.28 9.98 29.36 10.36 29.15 8.82 27.26 9.89 27.13 9.93 27.1 9.99 27.18 10.37 26.97 8.82 25.08 9.89 24.95 9.93 24.93"/><polygon class="cls-2" points="12.19 33.86 11.92 33.82 12.09 33.91 10.65 35.67 11.78 35.82 12.16 36.03 10.58 35.83 10.54 35.8 10.48 35.88 10.1 35.67 11.64 33.79 10.57 33.65 10.54 33.63 10.47 33.71 10.09 33.5 11.64 31.61 10.57 31.48 10.53 31.45 10.46 31.53 10.09 31.32 11.63 29.44 10.56 29.3 10.52 29.28 10.46 29.36 10.08 29.15 11.62 27.26 10.55 27.13 10.52 27.1 10.45 27.18 10.07 26.97 11.62 25.08 10.55 24.95 10.51 24.93 10.45 25.01 10.07 24.8 11.6 22.92 10.58 22.79 10.54 22.77 10.48 22.84 10.1 22.64 11.64 20.75 10.57 20.61 10.54 20.59 10.47 20.67 10.09 20.46 11.64 18.57 10.57 18.44 10.53 18.41 10.46 18.49 10.09 18.29 11.63 16.4 10.56 16.26 10.52 16.24 10.46 16.32 10.08 16.11 11.62 14.22 10.55 14.09 10.52 14.06 10.45 14.14 10.07 13.93 11.62 12.04 10.55 11.91 10.51 11.89 10.45 11.97 10.07 11.76 11.71 9.74 12.09 9.95 10.62 11.76 11.79 11.91 12.16 12.11 11.89 12.08 12.06 12.17 10.62 13.93 11.79 14.08 12.17 14.29 11.9 14.26 12.07 14.35 10.63 16.11 11.8 16.26 12.18 16.47 11.91 16.43 12.07 16.52 10.63 18.29 11.8 18.43 12.18 18.64 11.91 18.61 12.08 18.7 10.64 20.46 11.81 20.61 12.19 20.82 11.92 20.78 12.09 20.87 10.65 22.64 11.78 22.78 12.16 22.99 12.07 22.98 12.09 22.99 10.62 24.8 11.79 24.95 12.16 25.15 11.89 25.12 12.06 25.21 10.62 26.97 11.79 27.12 12.17 27.33 11.9 27.3 12.07 27.39 10.63 29.15 11.8 29.3 12.18 29.5 11.91 29.47 12.07 29.56 10.63 31.32 11.8 31.47 12.18 31.68 11.91 31.65 12.08 31.74 10.64 33.5 11.81 33.65 12.19 33.86"/><g class="cls-3"><polygon class="cls-7" points="10 25.01 8.38 25.21 9.99 27.18 8.37 27.39 9.98 29.36 8.37 29.56 9.98 31.53 8.36 31.74 9.97 33.71 8.36 33.91 9.96 35.88 8.31 36.09 8.28 36.03 9.86 35.83 8.25 33.86 9.87 33.65 8.26 31.68 9.87 31.48 8.26 29.5 9.88 29.3 8.27 27.33 9.88 27.13 8.28 25.15 9.89 24.95 8.34 23.05 8.31 23.05 8.28 22.99 9.86 22.79 8.25 20.82 9.87 20.61 8.26 18.64 9.87 18.44 8.26 16.47 9.88 16.26 8.27 14.29 9.88 14.09 8.28 12.12 9.89 11.91 8.32 9.98 8.35 9.95 10 11.97 8.38 12.17 9.99 14.14 8.37 14.35 9.98 16.32 8.37 16.52 9.98 18.49 8.36 18.7 9.97 20.67 8.36 20.87 9.96 22.84 8.39 23.04 10 25.01"/></g><g class="cls-3"><polygon class="cls-7" points="12.19 33.86 10.58 35.83 12.16 36.03 12.13 36.09 10.48 35.88 12.09 33.91 10.47 33.71 12.08 31.74 10.46 31.53 12.07 29.56 10.46 29.36 12.07 27.39 10.45 27.18 12.06 25.21 10.45 25.01 12.05 23.04 10.48 22.84 12.09 20.87 10.47 20.67 12.08 18.7 10.46 18.49 12.07 16.52 10.46 16.32 12.07 14.35 10.45 14.14 12.06 12.17 10.45 11.97 12.09 9.95 12.12 9.98 10.55 11.91 12.16 12.12 10.55 14.09 12.17 14.29 10.56 16.26 12.18 16.47 10.57 18.44 12.18 18.64 10.57 20.61 12.19 20.82 10.58 22.79 12.16 22.99 12.13 23.05 12.1 23.05 10.55 24.95 12.16 25.15 10.55 27.13 12.17 27.33 10.56 29.3 12.18 29.5 10.57 31.48 12.18 31.68 10.57 33.65 12.19 33.86"/></g><g class="cls-3"><polygon class="cls-2" points="9.91 22.64 10.22 22.49 10.53 22.64 10.22 22.78 9.91 22.64"/></g><g class="cls-3"><polygon class="cls-2" points="11.73 21.78 12.04 21.64 12.34 21.78 12.04 21.93 11.73 21.78"/><polygon class="cls-1" points="12.04 23.27 12.04 36.7 11.73 36.56 11.73 23.13 12.04 23.27"/></g><g class="cls-3"><polygon class="cls-2" points="8.71 21.78 8.4 21.64 8.1 21.78 8.4 21.93 8.71 21.78"/></g><g class="cls-3"><polygon class="cls-7" points="10.53 9.6 10.53 37.63 10.22 37.78 10.22 9.74 10.53 9.6"/><polygon class="cls-2" points="9.91 9.6 10.22 9.45 10.53 9.6 10.22 9.74 9.91 9.6"/><polygon class="cls-1" points="10.22 9.74 10.22 37.78 9.91 37.63 9.92 9.6 10.22 9.74"/></g><g class="cls-3"><polygon class="cls-7" points="12.35 8.74 12.35 36.56 12.04 36.7 12.04 8.89 12.35 8.74"/><polygon class="cls-2" points="11.73 8.74 12.04 8.6 12.34 8.74 12.04 8.89 11.73 8.74"/><polygon class="cls-1" points="12.04 8.89 12.04 23.27 11.73 23.13 11.73 8.74 12.04 8.89"/></g><g class="cls-3"><polygon class="cls-7" points="8.4 8.89 8.4 36.7 8.1 36.56 8.1 8.74 8.4 8.89"/><polygon class="cls-2" points="8.71 8.74 8.4 8.6 8.1 8.74 8.4 8.89 8.71 8.74"/><polygon class="cls-1" points="8.71 8.74 8.71 36.56 8.4 36.7 8.4 8.89 8.71 8.74"/></g><g class="cls-3"><polygon class="cls-4" points="10.23 8.2 10.23 11.04 13.4 9.19 13.4 6.36 10.23 8.2"/><polygon class="cls-5" points="10.23 8.2 10.23 11.04 7.04 9.19 7.04 6.35 10.23 8.2"/><polygon class="cls-6" points="13.4 6.36 10.23 8.2 7.04 6.35 10.21 4.51 13.4 6.36"/></g><path class="cls-8" d="M23.12,15.23a.46.46,0,0,1,.47,0l21,12.14a1.47,1.47,0,0,1,.67,1.15l0,17.38a.47.47,0,0,1-.19.43l-.88.5a.45.45,0,0,0,.2-.42l0-17.38a1.5,1.5,0,0,0-.67-1.16l-21-12.13a.48.48,0,0,0-.48,0Z" transform="translate(-4.72 -1)"/><path class="cls-9" d="M22.72,15.79c-.37-.21-.67,0-.68.38l0,17.38a1.47,1.47,0,0,0,.67,1.15l21,12.14c.37.21.67,0,.68-.38l0-17.38a1.5,1.5,0,0,0-.67-1.16Z" transform="translate(-4.72 -1)"/><polygon class="cls-10" points="18.15 17.29 18.12 32.84 38.81 44.78 38.84 29.23 18.15 17.29"/><path class="cls-11" d="M25.42,18.28c-.19-.11-.35,0-.35.2a.77.77,0,0,0,.35.59c.18.11.34,0,.34-.2A.75.75,0,0,0,25.42,18.28Z" transform="translate(-4.72 -1)"/><path class="cls-11" d="M23.22,17c-.19-.11-.34,0-.35.2a.77.77,0,0,0,.35.59c.18.11.34,0,.34-.2A.75.75,0,0,0,23.22,17Z" transform="translate(-4.72 -1)"/><path class="cls-11" d="M24.32,17.65c-.19-.11-.35,0-.35.19a.76.76,0,0,0,.35.59c.19.11.34,0,.34-.19A.73.73,0,0,0,24.32,17.65Z" transform="translate(-4.72 -1)"/><g class="cls-3"><path class="cls-2" d="M32.6,25.23l.25.14a.56.56,0,0,1,.41,0L33,25.25A.52.52,0,0,0,32.6,25.23Z" transform="translate(-4.72 -1)"/><polygon class="cls-2" points="27.75 25 27.75 22.67 28.12 22.45 27.87 22.3 27.5 22.52 27.5 24.86 27.75 25"/></g><path class="cls-12" d="M33.12,26.15a.32.32,0,0,0-.13-.29l-.25-.14a.3.3,0,0,1,.13.29,1,1,0,0,1-.22.57,1,1,0,0,1,.19.22A1,1,0,0,0,33.12,26.15Z" transform="translate(-4.72 -1)"/><path class="cls-7" d="M33.5,25.94c0-.46-.28-.68-.65-.57V23.45l-.38.22V26l.19-.11c.26-.14.46,0,.46.26a1,1,0,0,1-.28.65.89.89,0,0,1,.13.34A1.87,1.87,0,0,0,33.5,25.94Z" transform="translate(-4.72 -1)"/><g class="cls-3"><path class="cls-12" d="M33.19,27.36l-.33.19a.32.32,0,0,1-.32,0,1,1,0,0,1-.44-.77.3.3,0,0,1,.13-.28l.33-.2a.31.31,0,0,0-.12.28,1,1,0,0,0,.44.77A.33.33,0,0,0,33.19,27.36Z" transform="translate(-4.72 -1)"/><path class="cls-13" d="M39.11,30.08v4.18a.45.45,0,0,1-.2.43l-.33.19a.47.47,0,0,0,.2-.43V30.27a1.49,1.49,0,0,0-.67-1.16L27,22.69a.48.48,0,0,0-.48-.05l.34-.19a.48.48,0,0,1,.47,0l11.12,6.42A1.5,1.5,0,0,1,39.11,30.08Z" transform="translate(-4.72 -1)"/><path class="cls-14" d="M38.11,29.11a1.49,1.49,0,0,1,.67,1.16v4.18c0,.43-.3.6-.68.38L27,28.41a1.47,1.47,0,0,1-.67-1.16V23.07c0-.42.31-.59.68-.38Zm-5.57-1.59c.25.14.45,0,.45-.26a1,1,0,0,0-.44-.76c-.25-.14-.45,0-.45.25a1,1,0,0,0,.44.77" transform="translate(-4.72 -1)"/></g><path class="cls-2" d="M32.65,26.58a1,1,0,0,1-.23.22.38.38,0,0,1-.19.06h0L32,26.71l-.36.35a.44.44,0,0,0,.19.23l.25.15a.48.48,0,0,1-.19-.23l.31-.32.15.09a.33.33,0,0,0,.33,0,.8.8,0,0,0,.17-.15A1,1,0,0,0,32.65,26.58Z" transform="translate(-4.72 -1)"/><path class="cls-7" d="M32.67,27c-.19.11-.37.07-.43-.1l-.36.36c.13.3.44.37.79.17a1.66,1.66,0,0,0,.3-.24.89.89,0,0,0-.13-.34A.8.8,0,0,1,32.67,27Z" transform="translate(-4.72 -1)"/><polygon class="cls-11" points="22.5 24.39 22.48 26.86 33.35 33.14 33.37 30.67 22.5 24.39"/><path class="cls-11" d="M37.79,29.92c-.17-.09-.3,0-.3.18a.66.66,0,0,0,.3.52c.17.09.3,0,.3-.17A.66.66,0,0,0,37.79,29.92Z" transform="translate(-4.72 -1)"/><path class="cls-11" d="M35.85,28.8c-.17-.09-.3,0-.3.18a.66.66,0,0,0,.3.52c.16.09.3,0,.3-.18A.66.66,0,0,0,35.85,28.8Z" transform="translate(-4.72 -1)"/><path class="cls-11" d="M36.82,29.36c-.17-.09-.3,0-.3.18a.66.66,0,0,0,.3.52c.17.09.3,0,.3-.17A.66.66,0,0,0,36.82,29.36Z" transform="translate(-4.72 -1)"/><g class="cls-3"><polygon class="cls-7" points="28.98 22.04 29.69 21.63 28.77 23.26 28.06 23.67 28.98 22.04"/><polygon class="cls-7" points="28.36 20.55 29.07 20.14 29.69 21.63 28.98 22.04 28.36 20.55"/><polygon class="cls-2" points="26.8 19.65 27.51 19.24 29.07 20.14 28.36 20.55 26.8 19.65"/><polygon class="cls-1" points="28.36 20.55 28.98 22.04 28.06 23.67 27.07 23.1 26.17 20.42 26.8 19.65 28.36 20.55"/></g><g class="cls-3"><path class="cls-1" d="M32.92,18.2s0,0,0,.07V20.9a.21.21,0,0,1-.05.12.45.45,0,0,1-.36,0,.14.14,0,0,1-.08-.12V18.22a.14.14,0,0,1,.08-.12.45.45,0,0,1,.36,0C32.92,18.14,32.94,18.16,32.92,18.2Z" transform="translate(-4.72 -1)"/></g><polygon class="cls-7" points="28.16 16.79 29.07 16.26 29.07 17.19 28.16 17.71 28.16 16.79"/><polygon class="cls-2" points="0 0.53 0.91 0 29.07 16.26 28.16 16.79 0 0.53"/><polygon class="cls-1" points="28.16 16.79 28.16 17.71 0 1.46 0 0.53 28.16 16.79"/><g class="cls-3"><path class="cls-15" d="M27.2,43.65V44.8a.35.35,0,0,1-.2.28l-3.41,2a1.17,1.17,0,0,1-1,0l-3.43-2a.36.36,0,0,1-.21-.29V43.64a.37.37,0,0,0,.21.3l3.43,2a1.13,1.13,0,0,0,1,0l3.41-2A.32.32,0,0,0,27.2,43.65Z" transform="translate(-4.72 -1)"/><path class="cls-16" d="M27,43.36c.27.16.28.42,0,.58l-3.41,2a1.1,1.1,0,0,1-1,0l-3.43-2c-.27-.16-.28-.42,0-.58l3.41-2a1.08,1.08,0,0,1,1,0Z" transform="translate(-4.72 -1)"/><polygon class="cls-11" points="18.8 41.5 19.62 43.34 16.43 42.88 18.8 41.5"/></g><g class="cls-3"><path class="cls-17" d="M36.67,45.47v1.14a.35.35,0,0,1-.21.29l-3.41,2a1.1,1.1,0,0,1-1,0l-3.43-2a.36.36,0,0,1-.21-.29V45.46a.38.38,0,0,0,.2.3l3.44,2a1.11,1.11,0,0,0,1,0l3.41-2A.33.33,0,0,0,36.67,45.47Z" transform="translate(-4.72 -1)"/><path class="cls-18" d="M36.46,45.18c.28.16.28.42,0,.57l-3.42,2a1.08,1.08,0,0,1-1,0l-3.44-2c-.27-.15-.27-.41,0-.57l3.41-2a1.17,1.17,0,0,1,1,0Z" transform="translate(-4.72 -1)"/></g><path class="cls-19" d="M27.84,30.84,25,29.22a.54.54,0,0,0-.81.47v2.79a1.09,1.09,0,0,0,.53.94L27.57,35a.53.53,0,0,0,.8-.46v-2.8A1.08,1.08,0,0,0,27.84,30.84Z" transform="translate(-4.72 -1)"/><path class="cls-4" d="M34.14,34.48l-2.8-1.62a.54.54,0,0,0-.81.46v2.8a1.07,1.07,0,0,0,.53.93l2.81,1.62a.53.53,0,0,0,.8-.46v-2.8A1.07,1.07,0,0,0,34.14,34.48Z" transform="translate(-4.72 -1)"/><path class="cls-20" d="M40.44,38.11l-2.81-1.62a.54.54,0,0,0-.8.47v2.8a1.08,1.08,0,0,0,.54.93l2.8,1.62a.54.54,0,0,0,.81-.47V39A1.09,1.09,0,0,0,40.44,38.11Z" transform="translate(-4.72 -1)"/></svg>